<svg aria-hidden="true" style="position: absolute; width: 0; height: 0; overflow: hidden;" version="1.1" xmlns="http://www.w3.org/2000/svg" xmlns:xlink="http://www.w3.org/1999/xlink">
<defs>
<symbol id="icon-footer-email" viewBox="0 0 43 32">
<path d="M1.714 9.655v16.345c0 3.156 2.558 5.714 5.714 5.714h28.571c3.156 0 5.714-2.558 5.714-5.714v-16.345l-17.005 10.465c-1.837 1.13-4.153 1.13-5.99 0l-17.005-10.465z"></path>
<path d="M41.714 6.301v-0.301c0-3.156-2.558-5.714-5.714-5.714h-28.571c-3.156 0-5.714 2.558-5.714 5.714v0.301l18.503 11.386c0.918 0.565 2.077 0.565 2.995 0l18.503-11.386z"></path>
</symbol>
<symbol id="icon-footer-phone" viewBox="0 0 32 32">
<path d="M2 6c0-2.209 1.791-4 4-4h1.829c1.147 0 2.147 0.781 2.425 1.894l1.474 5.898c0.244 0.976-0.121 2.003-0.925 2.606l-1.725 1.294c-0.179 0.134-0.218 0.331-0.168 0.468 1.514 4.133 4.797 7.416 8.93 8.93 0.137 0.050 0.334 0.011 0.468-0.168l1.294-1.725c0.604-0.805 1.631-1.169 2.606-0.925l5.898 1.474c1.113 0.278 1.894 1.278 1.894 2.425v1.829c0 2.209-1.791 4-4 4h-3c-11.598 0-21-9.402-21-21v-3z"></path>
</symbol>
<symbol id="icon-footer-loc" viewBox="0 0 27 32">
<path d="M12.652 31.335c-0.089-0.052-0.217-0.127-0.378-0.227-0.321-0.198-0.775-0.49-1.317-0.873-1.082-0.764-2.526-1.899-3.973-3.38-2.88-2.949-5.872-7.38-5.872-13.078 0-6.75 5.472-12.222 12.222-12.222s12.222 5.472 12.222 12.222c0 5.698-2.992 10.129-5.872 13.078-1.447 1.482-2.891 2.616-3.973 3.38-0.542 0.383-0.996 0.675-1.317 0.873-0.161 0.099-0.289 0.175-0.378 0.227-0.045 0.026-0.080 0.046-0.105 0.060l-0.042 0.024c-0.331 0.179-0.74 0.181-1.070-0.001l-0.041-0.023c-0.025-0.014-0.060-0.034-0.105-0.060zM13.333 18.222c2.455 0 4.444-1.99 4.444-4.444s-1.99-4.444-4.444-4.444c-2.455 0-4.444 1.99-4.444 4.444s1.99 4.444 4.444 4.444z"></path>
</symbol>
<symbol id="icon-scrol" viewBox="0 0 27 32">
<path d="M13.334 32c-1.325 0-2.4-1.074-2.4-2.4v-21.241l-6.27 6.905c-0.919 0.955-2.438 0.985-3.393 0.067s-0.985-2.438-0.067-3.393l10.4-11.2c0.452-0.471 1.077-0.737 1.73-0.737s1.277 0.266 1.73 0.737l10.4 11.2c0.919 0.955 0.889 2.475-0.067 3.393s-2.475 0.889-3.393-0.067l-6.27-6.905v21.241c0 1.326-1.075 2.4-2.4 2.4z"></path>
</symbol>
<symbol id="icon-backpackfill" viewBox="0 0 20 32">
<path d="M6.663 30.027h7.274c4.143 0 6.19-2.095 6.155-6.286-0.048-4.786-0.071-8.262-0.19-10.869-0.345-7.667-2.5-9.917-9.595-9.917s-9.262 2.25-9.607 9.917c-0.119 2.607-0.143 6.083-0.19 10.869-0.036 4.191 2.012 6.286 6.155 6.286zM6.318 25.3c-1.024 0-1.679-0.667-1.679-1.667v-6.143c0-1.012 0.655-1.679 1.679-1.679h7.976c1.012 0 1.667 0.667 1.667 1.679v6.143c0 1-0.655 1.667-1.667 1.667h-7.976zM4.639 20.396h11.322v-1.417h-11.322v1.417zM10.306 0.17c-2.286 0-3.893 1.548-3.893 3.655h1.679c0-1.155 0.905-1.976 2.214-1.976 1.298 0 2.214 0.821 2.214 1.976h1.678c0-2.107-1.619-3.655-3.893-3.655z"></path>
</symbol>
<symbol id="icon-Group" viewBox="0 0 55 32">
<path d="M4.845 25.909c1.646 0 2.906-1.26 2.906-2.865v-15.361c0-1.626-1.26-2.906-2.906-2.906-1.626 0-2.885 1.28-2.885 2.906v15.361c0 1.605 1.26 2.865 2.885 2.865zM14.497 30.4c2.702 0 4.592-1.808 4.592-4.369v-21.315c0-2.581-1.89-4.389-4.592-4.389-2.682 0-4.572 1.808-4.572 4.389v21.315c0 2.56 1.89 4.369 4.572 4.369zM21.446 19.285h12.618v-7.843h-12.618v7.843zM41.014 30.4c2.702 0 4.592-1.808 4.592-4.369v-21.315c0-2.581-1.89-4.389-4.592-4.389-2.682 0-4.572 1.808-4.572 4.389v21.315c0 2.56 1.89 4.369 4.572 4.369zM50.462 25.909c1.626 0 2.906-1.26 2.906-2.865v-15.361c0-1.626-1.28-2.906-2.906-2.906s-2.885 1.28-2.885 2.906v15.361c0 1.605 1.26 2.865 2.885 2.865z"></path>
</symbol>
<symbol id="icon-x-mark" viewBox="0 0 32 32">
<path d="M7.293 7.293c0.391-0.391 1.024-0.391 1.414 0l7.293 7.293 7.293-7.293c0.391-0.391 1.024-0.391 1.414 0s0.391 1.024 0 1.414l-7.293 7.293 7.293 7.293c0.391 0.391 0.391 1.024 0 1.414s-1.024 0.391-1.414 0l-7.293-7.293-7.293 7.293c-0.391 0.391-1.024 0.391-1.414 0s-0.391-1.024 0-1.414l7.293-7.293-7.293-7.293c-0.391-0.391-0.391-1.024 0-1.414z"></path>
</symbol>
<symbol id="icon-logo" viewBox="0 0 32 32">
<path d="M11.959 9.868c-3.61-3.513-1.123-9.635 3.914-9.635s7.524 6.122 3.914 9.635l-3.914 3.808-3.914-3.808zM11.981 22.132c-3.61 3.513-1.123 9.635 3.914 9.635s7.524-6.122 3.914-9.635l-3.913-3.808-3.914 3.808zM9.752 19.925c-3.513 3.61-9.635 1.123-9.635-3.914s6.122-7.524 9.635-3.914l3.808 3.914-3.808 3.914zM22.015 19.902c3.513 3.61 9.635 1.123 9.635-3.914s-6.122-7.524-9.635-3.914l-3.808 3.914 3.808 3.913z"></path>
</symbol>
<symbol id="icon-menu" viewBox="0 0 46 32">
<path d="M0.444 2.778c0-1.043 0.846-1.889 1.889-1.889h41.556c1.043 0 1.889 0.846 1.889 1.889s-0.846 1.889-1.889 1.889h-41.556c-1.043 0-1.889-0.846-1.889-1.889zM0.444 16c0-1.043 0.846-1.889 1.889-1.889h41.556c1.043 0 1.889 0.846 1.889 1.889s-0.846 1.889-1.889 1.889h-41.556c-1.043 0-1.889-0.846-1.889-1.889zM21.222 29.222c0-1.043 0.846-1.889 1.889-1.889h20.778c1.043 0 1.889 0.846 1.889 1.889s-0.846 1.889-1.889 1.889h-20.778c-1.043 0-1.889-0.846-1.889-1.889z"></path>
</symbol>
<symbol id="icon-cameramacro-2" viewBox="0 0 33 32">
<path d="M7.981 2.254c-0.685 1.579-1.006 3.158-1.006 4.696 0 5.101 3.606 9.28 9.224 9.28s9.224-4.179 9.224-9.28c0-1.537-0.321-3.116-0.992-4.696-0.307-0.671-1.104-0.769-1.635-0.224l-3.13 3.186-2.669-3.452c-0.433-0.559-1.16-0.559-1.579 0l-2.669 3.452-3.144-3.186c-0.531-0.545-1.328-0.447-1.621 0.224zM15.081 30.456c0 0.629 0.489 1.048 1.118 1.048 7.225 0 13.863-4.458 16.044-10.719 0.307-0.853-0.014-1.398-0.922-1.398-7.141 0-12.284 4.193-14.352 9.489l0.363 0.475v-14.534h-2.25v15.638zM13.166 25.117c-2.627-3.41-6.834-5.73-12.13-5.73-0.908 0-1.23 0.545-0.922 1.398 1.873 5.422 7.071 9.503 13.165 10.467-0.070-0.238-0.112-0.517-0.112-0.797v-5.339z"></path>
</symbol>
<symbol id="icon-graduationcapfill" viewBox="0 0 32 32">
<path d="M29.704 9.835l-10.861-4.97c-1.132-0.51-2.052-0.754-2.973-0.732-0.91-0.022-1.831 0.222-2.973 0.732l-10.85 4.97c-0.71 0.322-1.054 0.887-1.054 1.453s0.344 1.12 1.054 1.453l4.571 2.086 7.022-3.295c-0.067-0.078-0.089-0.166-0.089-0.244 0-0.699 1.176-1.231 2.363-1.231 1.198 0 2.352 0.533 2.352 1.231 0 0.721-1.154 1.265-2.352 1.265-0.366 0-0.732-0.056-1.054-0.144l-6.701 3.139 4.737 2.174c1.143 0.521 2.063 0.743 2.973 0.732 0.921 0.011 1.842-0.211 2.973-0.732l10.861-4.981c0.71-0.333 1.054-0.888 1.054-1.453s-0.344-1.132-1.054-1.453zM8.116 17.19v6.745c1.864 1.132 4.526 1.819 7.755 1.819 6.545 0 10.761-2.807 10.761-6.124v-3.816l-7.156 3.273c-1.298 0.599-2.474 0.899-3.605 0.887-1.121 0.011-2.308-0.288-3.606-0.887l-4.149-1.897zM5.12 15.814v3.816c0 0.965 0.555 2.163 1.553 3.184v-6.279l-1.553-0.721zM6.673 26.509h1.442v-2.574c-0.555-0.333-1.043-0.71-1.442-1.12v3.694zM5.797 26.587v2.918c0 0.876 0.566 1.442 1.442 1.442h0.3c0.876 0 1.442-0.566 1.442-1.442v-2.918c0-0.877-0.566-1.442-1.442-1.442h-0.3c-0.876 0-1.442 0.566-1.442 1.442z"></path>
</symbol>
<symbol id="icon-Icon-1" viewBox="0 0 31 32">
<path d="M10.989 29.816c1.080 0 1.749-0.604 1.736-1.659l-0.257-14.439c0-0.45 0.193-0.784 0.591-0.964 1.697-0.746 2.43-1.53 2.34-3.78l-0.36-7.894c-0.026-0.566-0.36-0.887-0.887-0.887-0.501 0-0.81 0.334-0.81 0.913l0.090 7.676c0 0.45-0.283 0.733-0.707 0.733-0.437 0-0.746-0.27-0.746-0.694l-0.129-7.946c-0.013-0.553-0.334-0.874-0.861-0.874s-0.836 0.321-0.849 0.874l-0.129 7.946c0 0.424-0.309 0.694-0.746 0.694-0.424 0-0.72-0.283-0.72-0.733l0.090-7.676c0-0.579-0.296-0.913-0.81-0.913-0.527 0-0.861 0.321-0.887 0.887l-0.347 7.894c-0.103 2.25 0.63 3.034 2.327 3.78 0.399 0.18 0.591 0.514 0.591 0.964l-0.244 14.439c-0.013 1.054 0.643 1.659 1.723 1.659zM21.043 18.604l-0.27 9.489c-0.039 1.118 0.643 1.723 1.71 1.723 1.093 0 1.762-0.553 1.762-1.581v-27.27c0-0.656-0.45-0.964-0.913-0.964-0.489 0-0.81 0.257-1.221 0.861-2.070 2.906-3.433 8.344-3.433 13.487v0.63c0 0.887 0.321 1.543 0.964 1.967l0.759 0.514c0.463 0.321 0.669 0.681 0.643 1.144z"></path>
</symbol>
<symbol id="icon-walletpassfill" viewBox="0 0 25 32">
<path d="M4.929 31.155h14.842c2.879 0 4.332-1.467 4.332-4.374v-21.2c0-2.921-1.439-4.388-4.332-4.388h-3.549c-0.475 0-0.797 0.335-0.797 0.838 0 0.070 0 0.14 0 0.196 0 1.817-1.23 2.907-3.075 2.907s-3.075-1.090-3.075-2.907c0-0.056 0-0.126 0-0.196 0-0.503-0.321-0.839-0.797-0.839h-3.55c-2.893 0-4.332 1.467-4.332 4.388v21.2c0 2.907 1.453 4.374 4.332 4.374zM7.053 11.604c-0.503 0-0.866-0.377-0.866-0.88 0-0.475 0.363-0.853 0.866-0.853h10.607c0.489 0 0.852 0.377 0.852 0.852 0 0.503-0.363 0.88-0.852 0.88h-10.607zM7.053 16.565c-0.503 0-0.866-0.377-0.866-0.852 0-0.489 0.363-0.867 0.866-0.867h5.017c0.503 0 0.867 0.377 0.867 0.867 0 0.475-0.363 0.852-0.867 0.852h-5.017z"></path>
</symbol>
</defs>
</svg>
