



<svg id="menu" viewBox="0 0 34 34" fill="none" xmlns="http://www.w3.org/2000/svg">
  <path d="M4.25 9.563a1.063 1.063 0 0 1 1.062-1.063h23.375a1.063 1.063 0 1 1 0 2.125H5.312A1.063 1.063 0 0 1 4.25 9.562Zm0 7.438a1.063 1.063 0 0 1 1.062-1.063h23.375a1.063 1.063 0 1 1 0 2.125H5.312A1.063 1.063 0 0 1 4.25 17Zm11.688 7.437a1.063 1.063 0 0 1 1.062-1.062h11.688a1.063 1.063 0 1 1 0 2.125H17a1.063 1.063 0 0 1-1.063-1.063Z" fill="#CBEA7B"/>
</svg>

<svg width="24" height="24" viewBox="0 0 24 24" fill="none" xmlns="http://www.w3.org/2000/svg" id="close-menu">
  <path d="M5.47 5.47a.75.75 0 0 1 1.06 0L12 10.94l5.47-5.47a.75.75 0 1 1 1.06 1.06L13.06 12l5.47 5.47a.75.75 0 1 1-1.06 1.06L12 13.06l-5.47 5.47a.75.75 0 1 1-1.06-1.06L10.94 12 5.47 6.53a.75.75 0 0 1 0-1.06z" fill="#1A3129"/>
</svg>



<svg id="testi" width="40" height="40" viewBox="0 0 40 40" fill="none" xmlns="http://www.w3.org/2000/svg">
  <path d="M3.53 32.94v-7.41c0-2.13.39-4.34 1.17-6.64 0.8-2.32 1.88-4.51 3.25-6.57a25.8 25.8 0 014.67-5.26l5.94 3.96a37.97 37.97 0 00-3.5 6.75c-.92 2.32-1.37 4.88-1.34 7.68v7.47H3.53zm17.92 0v-7.41c0-2.13.39-4.34 1.17-6.64.8-2.32 1.88-4.51 3.25-6.57a25.8 25.8 0 014.67-5.26l5.94 3.96a37.97 37.97 0 00-3.5 6.75c-.92 2.32-1.37 4.88-1.34 7.68v7.47h-10.2z" fill="#356554"/>
</svg>
<svg id="scroll-icon"  viewBox="0 0 14 18" xmlns="http://www.w3.org/2000/svg" fill="currentColor">
  <path fill-rule="evenodd" clip-rule="evenodd" d="M7.0002 17.5C6.29603 17.5 5.7252 16.9292 5.7252 16.225L5.7252 4.94054L2.39426 8.60871C1.9062 9.1163 1.09907 9.13212 0.591483 8.64406C0.0838996 8.156 0.068073 7.34887 0.556135 6.84129L6.08113 0.891286C6.32152 0.641287 6.65338 0.5 7.0002 0.5C7.34702 0.5 7.67887 0.641287 7.91926 0.891286L13.4443 6.84129C13.9323 7.34887 13.9165 8.156 13.4089 8.64406C12.9013 9.13212 12.0942 9.1163 11.6061 8.60871L8.2752 4.94054V16.225C8.2752 16.9292 7.70436 17.5 7.0002 17.5Z" />
</svg>
<svg id="email"  viewBox="0 0 22 17" xmlns="http://www.w3.org/2000/svg" fill="currentColor">
  <path d="M0.5 5.1691V13.75C0.5 15.4069 1.84315 16.75 3.5 16.75H18.5C20.1569 16.75 21.5 15.4069 21.5 13.75V5.1691L12.5723 10.6631C11.6081 11.2564 10.3919 11.2564 9.42771 10.6631L0.5 5.1691Z" />
  <path d="M21.5 3.40783V3.25C21.5 1.59315 20.1569 0.25 18.5 0.25H3.5C1.84315 0.25 0.5 1.59315 0.5 3.25V3.40783L10.2139 9.38558C10.696 9.68227 11.304 9.68227 11.7861 9.38558L21.5 3.40783Z" />
</svg>
<svg id="phone" viewBox="0 0 24 25" xmlns="http://www.w3.org/2000/svg" fill="currentColor">
  <path fill-rule="evenodd" clip-rule="evenodd" d="M1.5 5C1.5 3.34315 2.84315 2 4.5 2H5.87163C6.732 2 7.48197 2.58556 7.69064 3.42025L8.79644 7.84343C8.97941 8.5753 8.70594 9.34555 8.10242 9.79818L6.8088 10.7684C6.67447 10.8691 6.64527 11.0167 6.683 11.1197C7.81851 14.2195 10.2805 16.6815 13.3803 17.817C13.4833 17.8547 13.6309 17.8255 13.7316 17.6912L14.7018 16.3976C15.1545 15.7941 15.9247 15.5206 16.6566 15.7036L13.3803 44C14.215 44.2087 22.5 17.768 22.5 18.6284V20C22.5 21.6569 21.1569 23 19.5 23H17.25C8.55151 23 1.5 15.9485 1.5 7.25V5Z"/>
</svg>
<svg id="location" viewBox="0 0 18 21" xmlns="http://www.w3.org/2000/svg" fill="currentColor">
  <path fill-rule="evenodd" clip-rule="evenodd" d="M8.53975 20.851C8.56995 20.8685 8.59369 20.8821 8.6105 20.8915L8.63843 20.9071C8.8613 21.0294 9.13776 21.0285 9.36084 20.9075L9.3895 20.8915C9.40631 20.8821 9.43005 20.8685 9.46025 20.851C9.52066 20.816 9.60697 20.765 9.7155 20.6982C9.93246 20.5646 10.2388 20.3676 10.6046 20.1091C11.3351 19.5931 12.3097 18.8274 13.2865 17.8273C15.2307 15.8368 17.25 12.8462 17.25 9C17.25 4.44365 13.5563 0.75 9 0.75C4.44365 0.75 0.75 4.44365 0.75 9C0.75 12.8462 2.76932 15.8368 4.71346 17.8273C5.69025 18.8274 6.66491 19.5931 7.39539 20.1091C7.76125 20.3676 8.06754 20.5646 8.2845 20.6982C8.39303 20.765 8.47934 20.816 8.53975 20.851ZM9 12C10.6569 12 12 10.6569 12 9C12 7.34315 10.6569 6 9 6C7.34315 6 6 7.34315 6 9C6 10.6569 7.34315 12 9 12Z"/>
</svg>
