

<svg id="logo" width="45" height="45" viewBox="0 0 45 45" fill="none" xmlns="http://www.w3.org/2000/svg">
  <path d="M16.899 13.75C11.746 8.737 15.295 0 22.484 0s7.573 8.737 2.42 13.75l-5.585 5.434-5.585-5.434Z" fill="#CBEA7B"/>
  <path d="M16.931 31.25c-5.153 5.013-1.604 13.75 5.485 13.75 7.188 0 10.737-8.737 5.585-13.75l-5.585-5.434-5.585 5.434Z" fill="#CBEA7B"/>
  <path d="M13.75 28.101c-5.013 5.153-13.75 1.604-13.75-5.485C0 15.328 8.737 11.779 13.75 16.931l5.434 5.585-5.434 5.585Z" fill="#CBEA7B"/>
  <path d="M31.25 28.069c5.013 5.152 13.75 1.603 13.75-5.485 0-7.189-8.737-10.738-13.75-5.586l-5.434 5.585 5.434 5.586Z" fill="#CBEA7B"/>
</svg>

<svg id="menu" viewBox="0 0 34 34" fill="none" xmlns="http://www.w3.org/2000/svg">
  <path d="M4.25 9.563a1.063 1.063 0 0 1 1.062-1.063h23.375a1.063 1.063 0 1 1 0 2.125H5.312A1.063 1.063 0 0 1 4.25 9.562Zm0 7.438a1.063 1.063 0 0 1 1.062-1.063h23.375a1.063 1.063 0 1 1 0 2.125H5.312A1.063 1.063 0 0 1 4.25 17Zm11.688 7.437a1.063 1.063 0 0 1 1.062-1.062h11.688a1.063 1.063 0 1 1 0 2.125H17a1.063 1.063 0 0 1-1.063-1.063Z" fill="#CBEA7B"/>
</svg>

<svg width="24" height="24" viewBox="0 0 24 24" fill="none" xmlns="http://www.w3.org/2000/svg" id="close-menu">
  <path d="M5.47 5.47a.75.75 0 0 1 1.06 0L12 10.94l5.47-5.47a.75.75 0 1 1 1.06 1.06L13.06 12l5.47 5.47a.75.75 0 1 1-1.06 1.06L12 13.06l-5.47 5.47a.75.75 0 1 1-1.06-1.06L10.94 12 5.47 6.53a.75.75 0 0 1 0-1.06z" fill="#1A3129"/>
</svg>



<svg id="features-one"  viewBox="0 0 39 37" fill="none" xmlns="http://www.w3.org/2000/svg">
  <path
    d="M9.561 1.701c-.82 1.892-1.205 3.784-1.205 5.625 0 6.11 4.319 11.115 11.049 11.115 6.73 0 11.049-5.005 11.049-11.115 0-1.842-.385-3.733-1.189-5.625-.368-.804-1.322-.921-1.958-.268l-3.75 3.817L20.359 1.115c-.52-.67-1.39-.67-1.892 0l-3.197 4.135L11.503 1.433c-.636-.653-1.59-.536-1.942.268zm8.504 33.783c0 .753.586 1.255 1.34 1.255 8.655 0 16.607-5.34 19.218-12.84.368-1.022-.017-1.675-1.105-1.675-8.554 0-14.715 5.023-17.193 11.367l.435.57V16.751h-2.696v18.733zm-2.293-6.395c-3.147-4.085-8.186-6.864-14.531-6.864C.152 22.225-.233 22.878.135 23.9c2.243 6.495 8.47 11.384 15.769 12.538a2.643 2.643 0 0 1-.132-.954v-6.395z" fill="#262626"
    
  />
  <svg id="features-two" xmlns="http://www.w3.org/2000/svg" viewBox="0 0 37 38" fill="none">
  <path d="M35.2504 11.7807L22.24 5.82702C20.8844 5.2157 19.7813 4.92332 18.6783 4.9499C17.5885 4.92332 16.4855 5.2157 15.1167 5.82702L2.11945 11.7807C1.26891 12.1662 0.856934 12.8439 0.856934 13.5217C0.856934 14.1994 1.26891 14.864 2.11945 15.2627L7.59477 17.7611L16.0071 13.8141C15.9274 13.7211 15.9007 13.6147 15.9007 13.5217C15.9007 12.6844 17.3095 12.0465 18.7314 12.0465C20.1667 12.0465 21.5489 12.6844 21.5489 13.5217C21.5489 14.3855 20.1667 15.0367 18.7314 15.0367C18.2929 15.0367 17.8544 14.9702 17.4689 14.864L9.44202 18.6249L15.1167 21.2297C16.4855 21.8542 17.5885 22.1201 18.6783 22.1068C19.7813 22.1201 20.8844 21.8542 22.24 21.2297L35.2504 15.2627C36.101 14.864 36.513 14.1994 36.513 13.5217C36.513 12.8439 36.101 12.1662 35.2504 11.7807ZM9.38887 20.5918V28.6719C11.6215 30.0274 14.811 30.8513 18.6783 30.8513C26.5192 30.8513 31.5692 27.4891 31.5692 23.5155V18.9438L22.9974 22.8643C21.4425 23.582 20.0339 23.9408 18.6783 23.9275C17.336 23.9408 15.914 23.582 14.3591 22.8643L9.38887 20.5918ZM5.80067 18.9438V23.5155C5.80067 24.6717 6.46515 26.1069 7.66121 27.3296V19.8077L5.80067 18.9438ZM7.66121 31.755H9.38887V28.6719C8.72438 28.2732 8.13965 27.8214 7.66121 27.3296V31.755ZM6.61134 31.8481V35.3433C6.61134 36.3932 7.28911 37.0709 8.33899 37.0709H8.6978C9.74768 37.0709 10.4255 36.3932 10.4255 35.3433V31.8481C10.4255 30.7982 9.74768 30.1204 8.6978 30.1204H8.33899C7.28911 30.1204 6.61134 30.7982 6.61134 31.8481Z" fill="#262626"/>
</svg>

</svg>
<svg id="features-three" xmlns="http://www.w3.org/2000/svg" viewBox="0 0 24 42" fill="none">
  <path d="M6.30906 38.8226C7.7153 38.8226 8.58585 38.0357 8.5691 36.663L8.23429 17.8627C8.23429 17.2769 8.4854 16.8416 9.00438 16.6071C11.2142 15.6361 12.1684 14.615 12.0512 11.6853L11.5825 1.40625C11.549 0.669643 11.1137 0.251116 10.4274 0.251116C9.77446 0.251116 9.37267 0.686384 9.37267 1.43973L9.48986 11.4342C9.48986 12.0201 9.12156 12.3884 8.5691 12.3884C7.9999 12.3884 7.59812 12.0368 7.59812 11.4844L7.43072 1.13839C7.41397 0.418527 6.99545 0 6.30906 0C5.62267 0 5.22089 0.418527 5.20415 1.13839L5.03673 11.4844C5.03673 12.0368 4.63495 12.3884 4.06576 12.3884C3.5133 12.3884 3.12826 12.0201 3.12826 11.4342L3.24545 1.43973C3.24545 0.686384 2.8604 0.251116 2.19076 0.251116C1.50437 0.251116 1.0691 0.669643 1.03562 1.40625L0.583613 11.6853C0.449684 14.615 1.40392 15.6361 3.61375 16.6071C4.13272 16.8416 4.38383 17.2769 4.38383 17.8627L4.06576 36.663C4.04902 38.0357 4.9028 38.8226 6.30906 38.8226ZM19.4006 24.2243L19.049 36.5793C18.9989 38.0357 19.886 38.8226 21.2756 38.8226C22.6986 38.8226 23.5691 38.1027 23.5691 36.7634V1.25558C23.5691 0.401786 22.9831 0 22.3804 0C21.7443 0 21.3259 0.334821 20.7901 1.12165C18.0947 4.90513 16.3203 11.9866 16.3203 18.683V19.5033C16.3203 20.6584 16.7387 21.5123 17.5759 22.0647L18.5636 22.7344C19.1661 23.1529 19.434 23.6217 19.4006 24.2243Z" fill="#262626"/>
</svg>
<svg id="features-four" xmlns="http://www.w3.org/2000/svg" viewBox="0 0 29 37" fill="none">
  <path d="M5.90408 36.3216H23.6831C27.1318 36.3216 28.8728 34.5637 28.8728 31.0816V5.68541C28.8728 2.18653 27.1485 0.428711 23.6831 0.428711H19.4309C18.8616 0.428711 18.4766 0.830497 18.4766 1.43318C18.4766 1.51688 18.4766 1.60059 18.4766 1.66755C18.4766 3.84388 17.0034 5.1497 14.7936 5.1497C12.5838 5.1497 11.1106 3.84388 11.1106 1.66755C11.1106 1.60059 11.1106 1.51688 11.1106 1.43318C11.1106 0.830497 10.7255 0.428711 10.1563 0.428711H5.90408C2.43868 0.428711 0.714355 2.18653 0.714355 5.68541V31.0816C0.714355 34.5637 2.45543 36.3216 5.90408 36.3216ZM8.44873 12.9008C7.84606 12.9008 7.41078 12.4488 7.41078 11.8461C7.41078 11.2769 7.84606 10.8249 8.44873 10.8249H21.1552C21.7412 10.8249 22.1764 11.2769 22.1764 11.8461C22.1764 12.4488 21.7412 12.9008 21.1552 12.9008H8.44873ZM8.44873 18.8439C7.84606 18.8439 7.41078 18.3919 7.41078 17.8227C7.41078 17.2367 7.84606 16.7847 8.44873 16.7847H14.4588C15.0615 16.7847 15.4968 17.2367 15.4968 17.8227C15.4968 18.3919 15.0615 18.8439 14.4588 18.8439H8.44873Z" fill="#262626" />
</svg>
<svg id="features-five" xmlns="http://www.w3.org/2000/svg" viewBox="0 0 38 23" fill="none">
  <path d="M2.53261 19.2249C3.73273 19.2249 4.65133 18.3062 4.65133 17.1359V5.93476C4.65133 4.74946 3.73273 3.81605 2.53261 3.81605C1.34732 3.81605 0.428711 4.74946 0.428711 5.93476V17.1359C0.428711 18.3062 1.34732 19.2249 2.53261 19.2249ZM9.57032 22.4994C11.5409 22.4994 12.9188 21.1807 12.9188 19.3138V3.77159C12.9188 1.88993 11.5409 0.571289 9.57032 0.571289C7.61457 0.571289 6.23667 1.88993 6.23667 3.77159V19.3138C6.23667 21.1807 7.61457 22.4994 9.57032 22.4994ZM14.6375 14.3948H23.8383V8.67576H14.6375V14.3948ZM28.9054 22.4994C30.876 22.4994 32.254 21.1807 32.254 19.3138V3.77159C32.254 1.88993 30.876 0.571289 28.9054 0.571289C26.9498 0.571289 25.5718 1.88993 25.5718 3.77159V19.3138C25.5718 21.1807 26.9498 22.4994 28.9054 22.4994ZM35.7951 19.2249C36.9804 19.2249 37.9137 18.3062 37.9137 17.1359V5.93476C37.9137 4.74946 36.9804 3.81605 35.7951 3.81605C34.6098 3.81605 33.6911 4.74946 33.6911 5.93476V17.1359C33.6911 18.3062 34.6098 19.2249 35.7951 19.2249Z" fill="#262626"/>
</svg>

<svg id="features-six" xmlns="http://www.w3.org/2000/svg" viewBox="0 0 29 45" fill="none">
  <path d="M9.37014 42.5579H19.5989C25.4248 42.5579 28.3044 39.6114 28.2541 33.7186C28.1871 26.9887 28.1536 22.1003 27.9862 18.434C27.5008 7.65276 24.4706 4.4887 14.4929 4.4887C4.51523 4.4887 1.46835 7.65276 0.982858 18.434C0.815448 22.1003 0.781965 26.9887 0.715001 33.7186C0.664778 39.6114 3.54424 42.5579 9.37014 42.5579ZM8.88464 35.9117C7.44491 35.9117 6.52416 34.9741 6.52416 33.568V24.9296C6.52416 23.5066 7.44491 22.569 8.88464 22.569H20.1012C21.5242 22.569 22.4449 23.5066 22.4449 24.9296V33.568C22.4449 34.9741 21.5242 35.9117 20.1012 35.9117H8.88464ZM6.52416 29.0144H22.4449V27.0221H6.52416V29.0144ZM14.4929 0.571289C11.2786 0.571289 9.01857 2.74763 9.01857 5.7108H11.3791C11.3791 4.08692 12.6514 2.93177 14.4929 2.93177C16.3176 2.93177 17.6068 4.08692 17.6068 5.7108H19.9672C19.9672 2.74763 17.6905 0.571289 14.4929 0.571289Z" fill="#262626" />
</svg>

<svg id="testi" width="40" height="40" viewBox="0 0 40 40" fill="none" xmlns="http://www.w3.org/2000/svg">
  <path d="M3.53 32.94v-7.41c0-2.13.39-4.34 1.17-6.64 0.8-2.32 1.88-4.51 3.25-6.57a25.8 25.8 0 014.67-5.26l5.94 3.96a37.97 37.97 0 00-3.5 6.75c-.92 2.32-1.37 4.88-1.34 7.68v7.47H3.53zm17.92 0v-7.41c0-2.13.39-4.34 1.17-6.64.8-2.32 1.88-4.51 3.25-6.57a25.8 25.8 0 014.67-5.26l5.94 3.96a37.97 37.97 0 00-3.5 6.75c-.92 2.32-1.37 4.88-1.34 7.68v7.47h-10.2z" fill="#356554"/>
</svg>
<svg id="scroll-icon"  viewBox="0 0 14 18" xmlns="http://www.w3.org/2000/svg" fill="currentColor">
  <path fill-rule="evenodd" clip-rule="evenodd" d="M7.0002 17.5C6.29603 17.5 5.7252 16.9292 5.7252 16.225L5.7252 4.94054L2.39426 8.60871C1.9062 9.1163 1.09907 9.13212 0.591483 8.64406C0.0838996 8.156 0.068073 7.34887 0.556135 6.84129L6.08113 0.891286C6.32152 0.641287 6.65338 0.5 7.0002 0.5C7.34702 0.5 7.67887 0.641287 7.91926 0.891286L13.4443 6.84129C13.9323 7.34887 13.9165 8.156 13.4089 8.64406C12.9013 9.13212 12.0942 9.1163 11.6061 8.60871L8.2752 4.94054V16.225C8.2752 16.9292 7.70436 17.5 7.0002 17.5Z" />
</svg>
<svg id="email"  viewBox="0 0 22 17" xmlns="http://www.w3.org/2000/svg" fill="currentColor">
  <path d="M0.5 5.1691V13.75C0.5 15.4069 1.84315 16.75 3.5 16.75H18.5C20.1569 16.75 21.5 15.4069 21.5 13.75V5.1691L12.5723 10.6631C11.6081 11.2564 10.3919 11.2564 9.42771 10.6631L0.5 5.1691Z" />
  <path d="M21.5 3.40783V3.25C21.5 1.59315 20.1569 0.25 18.5 0.25H3.5C1.84315 0.25 0.5 1.59315 0.5 3.25V3.40783L10.2139 9.38558C10.696 9.68227 11.304 9.68227 11.7861 9.38558L21.5 3.40783Z" />
</svg>
<svg id="phone" viewBox="0 0 24 25" xmlns="http://www.w3.org/2000/svg" fill="currentColor">
  <path fill-rule="evenodd" clip-rule="evenodd" d="M1.5 5C1.5 3.34315 2.84315 2 4.5 2H5.87163C6.732 2 7.48197 2.58556 7.69064 3.42025L8.79644 7.84343C8.97941 8.5753 8.70594 9.34555 8.10242 9.79818L6.8088 10.7684C6.67447 10.8691 6.64527 11.0167 6.683 11.1197C7.81851 14.2195 10.2805 16.6815 13.3803 17.817C13.4833 17.8547 13.6309 17.8255 13.7316 17.6912L14.7018 16.3976C15.1545 15.7941 15.9247 15.5206 16.6566 15.7036L13.3803 44C14.215 44.2087 22.5 17.768 22.5 18.6284V20C22.5 21.6569 21.1569 23 19.5 23H17.25C8.55151 23 1.5 15.9485 1.5 7.25V5Z"/>
</svg>
<svg id="location" viewBox="0 0 18 21" xmlns="http://www.w3.org/2000/svg" fill="currentColor">
  <path fill-rule="evenodd" clip-rule="evenodd" d="M8.53975 20.851C8.56995 20.8685 8.59369 20.8821 8.6105 20.8915L8.63843 20.9071C8.8613 21.0294 9.13776 21.0285 9.36084 20.9075L9.3895 20.8915C9.40631 20.8821 9.43005 20.8685 9.46025 20.851C9.52066 20.816 9.60697 20.765 9.7155 20.6982C9.93246 20.5646 10.2388 20.3676 10.6046 20.1091C11.3351 19.5931 12.3097 18.8274 13.2865 17.8273C15.2307 15.8368 17.25 12.8462 17.25 9C17.25 4.44365 13.5563 0.75 9 0.75C4.44365 0.75 0.75 4.44365 0.75 9C0.75 12.8462 2.76932 15.8368 4.71346 17.8273C5.69025 18.8274 6.66491 19.5931 7.39539 20.1091C7.76125 20.3676 8.06754 20.5646 8.2845 20.6982C8.39303 20.765 8.47934 20.816 8.53975 20.851ZM9 12C10.6569 12 12 10.6569 12 9C12 7.34315 10.6569 6 9 6C7.34315 6 6 7.34315 6 9C6 10.6569 7.34315 12 9 12Z"/>
</svg>
